HIERARCHY
ROOT joint_0
{
	OFFSET 0.000000 0.000000 0.000000
	CHANNELS 6 Xposition Yposition Zposition Zrotation Yrotation Xrotation 
	JOINT joint_1
	{
		OFFSET 10.084412 4.114712 95.061035
		CHANNELS 3 Zrotation Yrotation Xrotation
		JOINT joint_2
		{
			OFFSET -1.615463 4.243484 87.329956
			CHANNELS 3 Zrotation Yrotation Xrotation
			JOINT joint_3
			{
				OFFSET -3.579636 4.638191 87.154053
				CHANNELS 3 Zrotation Yrotation Xrotation
				JOINT joint_4
				{
					OFFSET 5.443451 7.217075 123.562988
					CHANNELS 3 Zrotation Yrotation Xrotation
					JOINT joint_5
					{
						OFFSET 21.688065 15.141808 90.458008
						CHANNELS 3 Zrotation Yrotation Xrotation
						End Site
						{
							OFFSET 0.000000 0.000000 0.000000
						}
					}
				}
				JOINT joint_6
				{
					OFFSET 3.611374 -22.863556 70.791992
					CHANNELS 3 Zrotation Yrotation Xrotation
					JOINT joint_7
					{
						OFFSET 3.493607 -153.029137 -12.665039
						CHANNELS 3 Zrotation Yrotation Xrotation
						JOINT joint_8
						{
							OFFSET -14.929443 -32.628616 -254.032959
							CHANNELS 3 Zrotation Yrotation Xrotation
							JOINT joint_9
							{
								OFFSET 11.589401 -3.548126 -242.255005
								CHANNELS 3 Zrotation Yrotation Xrotation
								End Site
								{
									OFFSET 0.000000 0.000000 0.000000
								}
							}
						}
					}
				}
				JOINT joint_10
				{
					OFFSET 2.651962 30.943008 67.690918
					CHANNELS 3 Zrotation Yrotation Xrotation
					JOINT joint_11
					{
						OFFSET -6.172562 150.392159 -30.576904
						CHANNELS 3 Zrotation Yrotation Xrotation
						JOINT joint_12
						{
							OFFSET 15.363358 20.741959 -255.254028
							CHANNELS 3 Zrotation Yrotation Xrotation
							JOINT joint_13
							{
								OFFSET 23.282578 -11.086121 -241.182983
								CHANNELS 3 Zrotation Yrotation Xrotation
								End Site
								{
									OFFSET 0.000000 0.000000 0.000000
								}
							}
						}
					}
				}
			}
		}
	}
	JOINT joint_14
	{
		OFFSET -7.080551 -92.910816 -106.291992
		CHANNELS 3 Zrotation Yrotation Xrotation
		JOINT joint_15
		{
			OFFSET -38.248322 -6.001282 -411.906006
			CHANNELS 3 Zrotation Yrotation Xrotation
			JOINT joint_16
			{
				OFFSET -11.189407 -11.244659 -448.150986
				CHANNELS 3 Zrotation Yrotation Xrotation
				JOINT joint_17
				{
					OFFSET 169.870491 -24.631378 -80.352999
					CHANNELS 3 Zrotation Yrotation Xrotation
					End Site
					{
						OFFSET 0.000000 0.000000 0.000000
					}
				}
			}
		}
	}
	JOINT joint_18
	{
		OFFSET -2.796600 85.817772 -112.273987
		CHANNELS 3 Zrotation Yrotation Xrotation
		JOINT joint_19
		{
			OFFSET -44.395859 -8.174402 -411.255005
			CHANNELS 3 Zrotation Yrotation Xrotation
			JOINT joint_20
			{
				OFFSET -25.617508 -5.555587 -447.666992
				CHANNELS 3 Zrotation Yrotation Xrotation
				JOINT joint_21
				{
					OFFSET 163.870811 53.215703 -78.867000
					CHANNELS 3 Zrotation Yrotation Xrotation
					End Site
					{
						OFFSET 0.000000 0.000000 0.000000
					}
				}
			}
		}
	}
}
MOTION
Frames: 13
Frame Time: 0.016667
-14.200727 -78.271553 1084.868042 -6.839759 9.856803 4.021561 -0.449591 -7.095647 7.659302 -1.710951 1.291250 -1.660394 -1.430048 -1.662886 1.248867 -2.650021 0.785385 10.648567 0.000000 0.000000 0.000000 0.530243 5.193973 1.395123 -0.232450 4.847345 -11.930880 0.560656 -10.116470 -0.840579 0.000000 0.000000 0.000000 -5.826984 5.346476 -1.653554 2.678848 7.236380 1.004753 0.524510 -13.210572 -4.652813 0.000000 0.000000 0.000000 3.617676 -8.530923 -5.594920 2.066262 12.008487 2.129287 2.242387 -0.840349 0.886843 0.000000 0.000000 0.000000 1.116975 -20.643636 4.453656 0.209158 32.538229 -13.284006 -2.204219 1.857143 -1.530175 0.000000 0.000000 0.000000 
-5.849616 -78.181702 1085.666016 -6.706788 9.773611 4.086907 -0.392551 -6.566288 7.650833 -1.606147 1.171430 -1.697896 -1.331612 -1.552567 1.210429 -2.685631 0.665888 10.874897 0.000000 0.000000 0.000000 0.584177 5.549984 1.880258 -0.359323 5.172342 -12.424453 0.650832 -11.831535 -1.262833 0.000000 0.000000 0.000000 -5.736127 5.236225 -1.550970 2.954777 7.193694 2.052693 0.598236 -14.469961 -5.717729 0.000000 0.000000 0.000000 3.923772 -9.025125 -5.868683 2.211958 13.974280 2.372842 2.411069 -0.837602 0.954964 0.000000 0.000000 0.000000 1.600330 -21.833442 5.208700 0.544756 34.136848 -13.312051 -1.612662 1.916628 -1.296379 0.000000 0.000000 0.000000 
2.646210 -77.958778 1086.428955 -6.589895 9.789577 4.259828 -0.362317 -6.076160 7.301692 -1.419849 1.041545 -1.626706 -1.156112 -1.399186 1.135899 -2.722666 0.555721 11.108373 0.000000 0.000000 0.000000 0.452215 5.892473 2.589673 -0.484508 5.453266 -13.045818 0.764172 -13.862746 -1.755321 0.000000 0.000000 0.000000 -5.586772 5.144517 -1.439606 3.304019 7.174381 3.271271 0.696775 -15.996290 -7.029356 0.000000 0.000000 0.000000 4.191283 -9.738215 -6.213503 2.407288 16.137468 2.503295 2.670970 -0.772455 1.071652 0.000000 0.000000 0.000000 2.268111 -22.483162 5.350053 1.228839 33.664676 -12.044043 -0.232750 1.434514 -0.551129 0.000000 0.000000 0.000000 
11.204989 -77.547348 1086.781982 -6.418358 9.892853 4.465966 -0.414802 -5.821270 6.849922 -1.261658 0.997519 -1.509177 -1.004888 -1.245138 1.054319 -2.767905 0.468245 11.367901 0.000000 0.000000 0.000000 0.181528 6.228105 3.193154 -0.626565 5.715004 -13.477264 0.928006 -16.378519 -2.357062 0.000000 0.000000 0.000000 -5.458851 5.166453 -1.216255 3.711189 7.264857 4.233378 0.837444 -17.835931 -8.297268 0.000000 0.000000 0.000000 4.418173 -10.962207 -6.774565 2.546788 18.975049 2.987668 2.933516 -0.639477 1.196174 0.000000 0.000000 0.000000 2.585095 -22.932610 5.250240 1.710096 31.577226 -10.309403 0.794448 0.944886 0.056937 0.000000 0.000000 0.000000 
19.659166 -76.909317 1086.725952 -6.083003 10.093213 4.710026 -0.619991 -5.893775 6.311783 -1.188018 1.080888 -1.321634 -0.928435 -1.104303 0.982427 -2.831159 0.419369 11.695608 0.000000 0.000000 0.000000 -0.163358 6.576013 3.434946 -0.802703 5.989559 -13.387560 1.172847 -19.550868 -3.094981 0.000000 0.000000 0.000000 -5.406679 5.362660 -0.787662 4.137574 7.512720 4.589515 1.024841 -19.965871 -9.237680 0.000000 0.000000 0.000000 4.490561 -13.034041 -7.637894 2.518559 22.952366 4.028517 3.088878 -0.112605 1.325389 0.000000 0.000000 0.000000 2.047672 -23.253951 4.933475 1.457885 27.476861 -8.139189 0.728444 1.020640 0.007603 0.000000 0.000000 0.000000 
28.032766 -76.069733 1086.411011 -5.813878 10.199842 4.877476 -0.866862 -5.792985 5.806394 -1.100822 1.048151 -1.129658 -0.841339 -0.953721 0.907045 -2.908396 0.405211 12.082998 0.000000 0.000000 0.000000 -0.603604 6.935759 3.496723 -0.963517 6.252079 -12.965928 1.511099 -23.278602 -3.933072 0.000000 0.000000 0.000000 -5.394748 5.696720 -0.220865 4.576173 7.883750 4.534802 1.247104 -22.364721 -9.969046 0.000000 0.000000 0.000000 4.377320 -15.624506 -8.552678 2.462101 27.761132 5.292005 3.233715 1.202734 1.560575 0.000000 0.000000 0.000000 0.822524 -22.795502 4.373309 0.544663 20.706776 -4.800084 0.041724 2.638581 -0.841704 0.000000 0.000000 0.000000 
36.880150 -75.005821 1084.692993 -6.183559 9.955426 4.700739 -0.945701 -5.302675 5.950283 -0.944911 0.832213 -1.221582 -0.684504 -0.865904 0.852388 -2.968482 0.445959 12.381546 0.000000 0.000000 0.000000 -1.365905 7.288137 3.717318 -0.927021 6.413270 -12.989256 2.015671 -27.368416 -4.780000 0.000000 0.000000 0.000000 -5.416975 6.264014 0.336232 5.137061 8.504000 4.392343 1.551298 -25.397924 -10.871763 0.000000 0.000000 0.000000 4.650998 -17.925458 -9.571368 2.788531 32.629089 7.110183 3.804952 2.831577 2.021204 0.000000 0.000000 0.000000 -0.392038 -21.594925 4.409444 -0.432274 14.001856 -1.636416 -0.594821 5.781873 -2.169954 0.000000 0.000000 0.000000 
47.053570 -73.659279 1080.319946 -7.136084 9.484411 4.511684 -1.010520 -5.196167 6.316103 -0.794944 0.846758 -1.388447 -0.496330 -0.935968 0.856405 -2.984068 0.588283 12.438589 0.000000 0.000000 0.000000 -2.925080 7.599934 4.381878 -0.413609 6.343530 -14.211564 2.848825 -31.674137 -5.498871 0.000000 0.000000 0.000000 -5.477938 7.236537 0.798409 5.928336 9.553262 4.347286 2.010746 -29.462192 -12.277649 0.000000 0.000000 0.000000 5.855598 -19.739145 -11.583026 3.788010 37.346342 10.297572 5.399380 4.486801 2.902561 0.000000 0.000000 0.000000 -1.166270 -20.349198 5.126768 -0.821931 9.466954 -0.201737 -0.753754 8.917551 -3.268687 0.000000 0.000000 0.000000 
58.354504 -72.037758 1073.719971 -8.349883 8.823185 4.568814 -1.219310 -5.432471 6.437959 -0.688052 1.051963 -1.375594 -0.317247 -1.130016 0.896058 -2.949532 0.793700 12.237840 0.000000 0.000000 0.000000 -5.293683 7.827609 5.344348 0.666079 6.003304 -16.445960 4.094180 -36.119387 -6.010715 0.000000 0.000000 0.000000 -5.552333 8.576123 1.118995 6.887480 10.948301 4.353754 2.641351 -34.393352 -14.018055 0.000000 0.000000 0.000000 7.796776 -21.196096 -14.763045 5.333889 42.018325 14.764408 8.092477 6.781128 4.302524 0.000000 0.000000 0.000000 -1.799760 -18.924242 5.972203 -0.875186 5.921073 0.160108 -0.683448 11.952899 -4.237161 0.000000 0.000000 0.000000 
68.547562 -70.342735 1067.123047 -9.687882 8.261780 4.851054 -1.410771 -5.484824 6.453287 -0.526383 1.165744 -1.295459 -0.085165 -1.265923 0.921332 -2.873981 0.869187 11.913179 0.000000 0.000000 0.000000 -7.153639 8.023681 6.242861 1.744612 5.671120 -18.681378 5.412855 -40.948189 -6.670412 0.000000 0.000000 0.000000 -5.649012 9.805202 1.150232 7.885302 12.207077 4.538105 3.374973 -39.495915 -15.612317 0.000000 0.000000 0.000000 9.753630 -22.613554 -18.319830 6.926494 46.260684 19.132497 10.914682 8.312798 5.625309 0.000000 0.000000 0.000000 -2.081120 -17.695372 6.384035 -0.563921 3.632885 0.159541 -0.340398 13.878887 -4.721347 0.000000 0.000000 0.000000 
75.936142 -68.337814 1061.703003 -11.184972 8.224915 5.365660 -1.429333 -5.327847 6.426790 -0.146833 1.164322 -1.264799 0.362709 -1.230332 0.911772 -2.795029 0.682786 11.697179 0.000000 0.000000 0.000000 -7.433331 8.330387 7.117854 2.183259 5.615968 -20.408889 6.379304 -46.779762 -8.035429 0.000000 0.000000 0.000000 -5.941005 10.556230 0.743593 8.930165 13.042230 5.076909 4.169664 -44.457093 -16.700545 0.000000 0.000000 0.000000 11.380042 -24.721258 -21.990630 8.427380 50.585563 22.722647 13.127777 7.188140 6.308182 0.000000 0.000000 0.000000 -1.791663 -17.308595 5.971388 0.346797 3.398422 -0.030370 0.563092 13.269895 -4.097974 0.000000 0.000000 0.000000 
81.365753 -65.933403 1056.613037 -12.812612 8.602151 6.181876 -1.365599 -5.117658 6.162315 0.392017 1.122619 -1.173020 0.979798 -1.092130 0.888013 -2.702257 0.293227 11.525521 0.000000 0.000000 0.000000 -6.614950 8.690537 8.158331 2.125987 5.663011 -22.064243 7.017843 -53.484435 -9.926987 0.000000 0.000000 0.000000 -6.422076 10.987160 -0.046090 10.087328 13.615245 5.919215 5.061947 -49.517493 -17.426633 0.000000 0.000000 0.000000 13.074512 -27.410186 -26.203591 10.204524 55.189686 26.107750 15.277294 4.031599 6.656817 0.000000 0.000000 0.000000 -1.120975 -17.611163 4.899743 1.806026 5.013487 -0.743924 2.018485 10.409291 -2.494067 0.000000 0.000000 0.000000 
85.840530 -64.840096 1053.155029 -14.269615 8.938855 6.876415 -1.140836 -4.579523 5.946715 0.804217 0.973094 -1.096895 1.412237 -0.927175 0.858936 -2.598789 -0.115470 11.342729 0.000000 0.000000 0.000000 -5.498764 8.924487 8.827477 1.860671 5.615713 -22.998729 7.524692 -60.042430 -11.596115 0.000000 0.000000 0.000000 -6.851479 11.320125 -0.506655 11.132281 14.009713 6.354198 5.913096 -54.240059 -18.097575 0.000000 0.000000 0.000000 14.519335 -29.938072 -29.611365 11.742149 58.250617 28.420391 16.547486 0.410127 6.610299 0.000000 0.000000 0.000000 -0.469321 -17.899165 3.956065 3.015053 6.773261 -1.394936 3.232942 7.794393 -1.108199 0.000000 0.000000 0.000000 
